<svg width="20" height="21" viewBox="0 0 20 21" fill="none" xmlns="http://www.w3.org/2000/svg">
<path d="M13.0003 8.50157L6.41541 15.0865C6.24845 15.2535 6.05203 15.3369 5.82615 15.3369C5.60027 15.3369 5.40385 15.2535 5.2369 15.0865C5.06994 14.9196 4.98646 14.7231 4.98646 14.4973C4.98646 14.2714 5.06994 14.075 5.2369 13.908L11.8218 7.32306H6.04712C5.81142 7.32306 5.61746 7.24204 5.46523 7.07999C5.31301 6.91795 5.2369 6.71908 5.2369 6.48337C5.24672 6.25749 5.32774 6.06353 5.47996 5.90148C5.63219 5.73944 5.82615 5.65842 6.06185 5.65842L13.84 5.65842C13.9579 5.65842 14.0635 5.68051 14.1568 5.72471C14.2501 5.7689 14.336 5.83028 14.4146 5.90885C14.4931 5.98742 14.5545 6.07335 14.5987 6.16665C14.6429 6.25995 14.665 6.36552 14.665 6.48337L14.665 14.2615C14.665 14.4776 14.584 14.6667 14.4219 14.8287C14.2599 14.9908 14.0659 15.0767 13.84 15.0865C13.6043 15.0865 13.4055 15.0055 13.2434 14.8434C13.0814 14.6814 13.0003 14.4825 13.0003 14.2468L13.0003 8.50157Z" fill="#0B1730" fill-opacity="0.8"/>
</svg>
