<svg width="20" height="21" viewBox="0 0 20 21" fill="none" xmlns="http://www.w3.org/2000/svg">
<path d="M9.965 14.7C10.21 14.7 10.4171 14.6154 10.5863 14.4462C10.7554 14.2771 10.84 14.07 10.84 13.825C10.84 13.58 10.7554 13.3729 10.5863 13.2038C10.4171 13.0346 10.21 12.95 9.965 12.95C9.72 12.95 9.51292 13.0346 9.34375 13.2038C9.17458 13.3729 9.09 13.58 9.09 13.825C9.09 14.07 9.17458 14.2771 9.34375 14.4462C9.51292 14.6154 9.72 14.7 9.965 14.7ZM9.335 12.005H10.63C10.63 11.62 10.6737 11.3167 10.7613 11.095C10.8488 10.8733 11.0967 10.57 11.505 10.185C11.8083 9.88167 12.0475 9.59292 12.2225 9.31875C12.3975 9.04458 12.485 8.715 12.485 8.33C12.485 7.67667 12.2458 7.175 11.7675 6.825C11.2892 6.475 10.7233 6.3 10.07 6.3C9.405 6.3 8.86542 6.475 8.45125 6.825C8.03708 7.175 7.74833 7.595 7.585 8.085L8.74 8.54C8.79833 8.33 8.92958 8.1025 9.13375 7.8575C9.33792 7.6125 9.65 7.49 10.07 7.49C10.4433 7.49 10.7233 7.59208 10.91 7.79625C11.0967 8.00042 11.19 8.225 11.19 8.47C11.19 8.70333 11.12 8.92208 10.98 9.12625C10.84 9.33042 10.665 9.52 10.455 9.695C9.94167 10.15 9.62667 10.4942 9.51 10.7275C9.39333 10.9608 9.335 11.3867 9.335 12.005ZM10 17.5C9.03167 17.5 8.12167 17.3162 7.27 16.9487C6.41833 16.5813 5.6775 16.0825 5.0475 15.4525C4.4175 14.8225 3.91875 14.0817 3.55125 13.23C3.18375 12.3783 3 11.4683 3 10.5C3 9.53167 3.18375 8.62167 3.55125 7.77C3.91875 6.91833 4.4175 6.1775 5.0475 5.5475C5.6775 4.9175 6.41833 4.41875 7.27 4.05125C8.12167 3.68375 9.03167 3.5 10 3.5C10.9683 3.5 11.8783 3.68375 12.73 4.05125C13.5817 4.41875 14.3225 4.9175 14.9525 5.5475C15.5825 6.1775 16.0813 6.91833 16.4487 7.77C16.8162 8.62167 17 9.53167 17 10.5C17 11.4683 16.8162 12.3783 16.4487 13.23C16.0813 14.0817 15.5825 14.8225 14.9525 15.4525C14.3225 16.0825 13.5817 16.5813 12.73 16.9487C11.8783 17.3162 10.9683 17.5 10 17.5ZM10 16.1C11.5633 16.1 12.8875 15.5575 13.9725 14.4725C15.0575 13.3875 15.6 12.0633 15.6 10.5C15.6 8.93667 15.0575 7.6125 13.9725 6.5275C12.8875 5.4425 11.5633 4.9 10 4.9C8.43667 4.9 7.1125 5.4425 6.0275 6.5275C4.9425 7.6125 4.4 8.93667 4.4 10.5C4.4 12.0633 4.9425 13.3875 6.0275 14.4725C7.1125 15.5575 8.43667 16.1 10 16.1Z" fill="#0B1730" fill-opacity="0.8"/>
</svg>
