<?xml version="1.0" encoding="utf-8"?>
<!-- Generator: Adobe Illustrator 24.0.1, SVG Export Plug-In . SVG Version: 6.00 Build 0)  -->
<svg version="1.1" id="Layer_1" xmlns="http://www.w3.org/2000/svg" xmlns:xlink="http://www.w3.org/1999/xlink" x="0px" y="0px"
	 viewBox="0 0 80 80" style="enable-background:new 0 0 80 80;" xml:space="preserve">
<style type="text/css">
	.st0{fill:#2A2766;}
	.st1{fill:none;}
	.st2{fill:#FFFFFF;}
</style>
<circle class="st0" cx="39.8" cy="40.4" r="31.9"/>
<rect x="-0.2" y="0.4" class="st1" width="80" height="80"/>
<path class="st2" d="M60.1,29.3c-1.5,0.6-3,1.1-4.6,1.3c1.7-1,2.9-2.6,3.5-4.4c-1.5,1-3.2,1.6-5,1.9c-1.5-1.6-3.6-2.5-5.8-2.5
	c-4.4,0-7.9,3.6-7.9,8l0,0c0,0.6,0,1.3,0.2,1.9C34.1,35.1,28.3,32,24.3,27c-0.7,1.2-1,2.6-1,4c0,2.7,1.3,5.2,3.5,6.8
	c-1.3,0-2.5-0.4-3.5-1.1l0,0c0,3.8,2.6,7,6.2,7.8c-0.7,0.2-1.4,0.2-2.1,0.2c-0.5,0-1,0-1.5-0.2c1,3.2,3.9,5.4,7.3,5.5
	c-2.8,2.2-6.2,3.4-9.8,3.4c-0.6,0-1.3,0-1.9-0.2c3.5,2.7,7.7,4.1,12.1,4c14.6,0,22.5-12.3,22.5-22.8v-1.1
	C57.6,32.2,59,30.9,60.1,29.3z"/>
</svg>
