<?xml version="1.0" encoding="utf-8"?>
<!-- Generator: Adobe Illustrator 24.0.1, SVG Export Plug-In . SVG Version: 6.00 Build 0)  -->
<svg version="1.1" id="Layer_1" xmlns="http://www.w3.org/2000/svg" xmlns:xlink="http://www.w3.org/1999/xlink" x="0px" y="0px"
	 viewBox="0 0 80 80" style="enable-background:new 0 0 80 80;" xml:space="preserve">
<style type="text/css">
	.st0{fill:#2A2766;}
	.st1{fill:none;}
	.st2{fill:#FFFFFF;}
</style>
<circle class="st0" cx="40.4" cy="40.5" r="31.9"/>
<rect x="0.4" y="0.5" class="st1" width="80" height="80"/>
<g>
	<path class="st2" d="M35.7,31.3h7.9v4h0.1c1.1-2,3.8-4,7.8-4c8.3,0,9.9,5.2,9.9,11.9v13.7h-8.2V44.8c0-2.9-0.1-6.6-4.3-6.6
		c-4.3,0-4.9,3.2-4.9,6.4V57h-8.2V31.3H35.7z"/>
	<path class="st2" d="M21.4,31.3h8.5v25.6h-8.5V31.3z"/>
	<path class="st2" d="M30,24.2c0,2.4-1.9,4.3-4.3,4.3s-4.3-1.9-4.3-4.3s1.9-4.3,4.3-4.3S30,21.9,30,24.2z"/>
</g>
</svg>
